<svg width="316" height="327" viewBox="0 0 316 327" fill="none" xmlns="http://www.w3.org/2000/svg">
<g clip-path="url(#clip0)">
<circle cx="3.80469" cy="3.32446" r="3" fill="#384152"/>
<circle cx="3.80469" cy="243.324" r="3" fill="#384152"/>
<circle cx="3.80469" cy="63.3245" r="3" fill="#384152"/>
<circle cx="3.80469" cy="303.324" r="3" fill="#384152"/>
<circle cx="3.80469" cy="123.324" r="3" fill="#384152"/>
<circle cx="3.80469" cy="183.324" r="3" fill="#384152"/>
<circle cx="3.80469" cy="23.3245" r="3" fill="#384152"/>
<circle cx="3.80469" cy="263.324" r="3" fill="#384152"/>
<circle cx="3.80469" cy="83.3245" r="3" fill="#384152"/>
<circle cx="3.80469" cy="323.324" r="3" fill="#384152"/>
<circle cx="3.80469" cy="143.324" r="3" fill="#00C365" fill-opacity="0.7"/>
<circle cx="3.80469" cy="203.324" r="3" fill="#384152"/>
<circle cx="3.80469" cy="43.3245" r="3" fill="#384152"/>
<circle cx="3.80469" cy="283.324" r="3" fill="#384152"/>
<circle cx="3.80469" cy="103.324" r="3" fill="#384152"/>
<circle cx="3.80469" cy="163.324" r="3" fill="#384152"/>
<circle cx="3.80469" cy="223.324" r="3" fill="#384152"/>
<circle cx="24.8047" cy="3.32446" r="3" fill="#384152"/>
<circle cx="24.8047" cy="243.324" r="3" fill="#384152"/>
<circle cx="24.8047" cy="63.3245" r="3" fill="#384152"/>
<circle cx="24.8047" cy="303.324" r="3" fill="#384152"/>
<circle cx="24.8047" cy="123.324" r="3" fill="#384152"/>
<circle cx="24.8047" cy="183.324" r="3" fill="#384152"/>
<circle cx="24.8047" cy="23.3245" r="3" fill="#384152"/>
<circle cx="24.8047" cy="263.324" r="3" fill="#00C365" fill-opacity="0.7"/>
<circle cx="24.8047" cy="83.3245" r="3" fill="#384152"/>
<circle cx="24.8047" cy="323.324" r="3" fill="#384152"/>
<circle cx="24.8047" cy="143.324" r="3" fill="#384152"/>
<circle cx="24.8047" cy="203.324" r="3" fill="#384152"/>
<circle cx="24.8047" cy="43.3245" r="3" fill="#00C365" fill-opacity="0.7"/>
<circle cx="24.8047" cy="283.324" r="3" fill="#384152"/>
<circle cx="24.8047" cy="103.324" r="3" fill="#384152"/>
<circle cx="24.8047" cy="163.324" r="3" fill="#384152"/>
<circle cx="24.8047" cy="223.324" r="3" fill="#384152"/>
<circle cx="45.8047" cy="3.32446" r="3" fill="#384152"/>
<circle cx="45.8047" cy="243.324" r="3" fill="#384152"/>
<circle cx="45.8047" cy="63.3245" r="3" fill="#384152"/>
<circle cx="45.8047" cy="303.324" r="3" fill="#384152"/>
<circle cx="45.8047" cy="123.324" r="3" fill="#384152"/>
<circle cx="45.8047" cy="183.324" r="3" fill="#384152"/>
<circle cx="45.8047" cy="23.3245" r="3" fill="#384152"/>
<circle cx="45.8047" cy="263.324" r="3" fill="#384152"/>
<circle cx="45.8047" cy="83.3245" r="3" fill="#384152"/>
<circle cx="45.8047" cy="323.324" r="3" fill="#00C365" fill-opacity="0.7"/>
<circle cx="45.8047" cy="143.324" r="3" fill="#384152"/>
<circle cx="45.8047" cy="203.324" r="3" fill="#384152"/>
<circle cx="45.8047" cy="43.3245" r="3" fill="#384152"/>
<circle cx="45.8047" cy="283.324" r="3" fill="#384152"/>
<circle cx="45.8047" cy="103.324" r="3" fill="#384152"/>
<circle cx="45.8047" cy="163.324" r="3" fill="#384152"/>
<circle cx="45.8047" cy="223.324" r="3" fill="#384152"/>
<circle cx="66.8047" cy="3.32446" r="3" fill="#384152"/>
<circle cx="66.8047" cy="243.324" r="3" fill="#384152"/>
<circle cx="66.8047" cy="63.3245" r="3" fill="#384152"/>
<circle cx="66.8047" cy="303.324" r="3" fill="#384152"/>
<circle cx="66.8047" cy="123.324" r="3" fill="#384152"/>
<circle cx="66.8047" cy="183.324" r="3" fill="#384152"/>
<circle cx="66.8047" cy="23.3245" r="3" fill="#384152"/>
<circle cx="66.8047" cy="263.324" r="3" fill="#384152"/>
<circle cx="66.8047" cy="83.3245" r="3" fill="#384152"/>
<circle cx="66.8047" cy="323.324" r="3" fill="#384152"/>
<circle cx="66.8047" cy="143.324" r="3" fill="#384152"/>
<circle cx="66.8047" cy="203.324" r="3" fill="#384152"/>
<circle cx="66.8047" cy="43.3245" r="3" fill="#384152"/>
<circle cx="66.8047" cy="283.324" r="3" fill="#384152"/>
<circle cx="66.8047" cy="103.324" r="3" fill="#384152"/>
<circle cx="66.8047" cy="163.324" r="3" fill="#384152"/>
<circle cx="66.8047" cy="223.324" r="3" fill="#384152"/>
<circle cx="87.8047" cy="3.32446" r="3" fill="#384152"/>
<circle cx="87.8047" cy="243.324" r="3" fill="#384152"/>
<circle cx="87.8047" cy="63.3245" r="3" fill="#384152"/>
<circle cx="87.8047" cy="303.324" r="3" fill="#384152"/>
<circle cx="87.8047" cy="123.324" r="3" fill="#384152"/>
<circle cx="87.8047" cy="183.324" r="3" fill="#384152"/>
<circle cx="87.8047" cy="23.3245" r="3" fill="#384152"/>
<circle cx="87.8047" cy="263.324" r="3" fill="#384152"/>
<circle cx="87.8047" cy="83.3245" r="3" fill="#384152"/>
<circle cx="87.8047" cy="323.324" r="3" fill="#384152"/>
<circle cx="87.8047" cy="143.324" r="3" fill="#384152"/>
<circle cx="87.8047" cy="203.324" r="3" fill="#384152"/>
<circle cx="87.8047" cy="43.3245" r="3" fill="#384152"/>
<circle cx="87.8047" cy="283.324" r="3" fill="#384152"/>
<circle cx="87.8047" cy="103.324" r="3" fill="#384152"/>
<circle cx="87.8047" cy="163.324" r="3" fill="#384152"/>
<circle cx="87.8047" cy="223.324" r="3" fill="#384152"/>
<circle cx="108.805" cy="3.32446" r="3" fill="#384152"/>
<circle cx="108.805" cy="243.324" r="3" fill="#384152"/>
<circle cx="108.805" cy="63.3245" r="3" fill="#384152"/>
<circle cx="108.805" cy="303.324" r="3" fill="#384152"/>
<circle cx="108.805" cy="123.324" r="3" fill="#384152"/>
<circle cx="108.805" cy="183.324" r="3" fill="#384152"/>
<circle cx="108.805" cy="23.3245" r="3" fill="#384152"/>
<circle cx="108.805" cy="263.324" r="3" fill="#384152"/>
<circle cx="108.805" cy="83.3245" r="3" fill="#384152"/>
<circle cx="108.805" cy="323.324" r="3" fill="#384152"/>
<circle cx="108.805" cy="143.324" r="3" fill="#384152"/>
<circle cx="108.805" cy="203.324" r="3" fill="#384152"/>
<circle cx="108.805" cy="43.3245" r="3" fill="#384152"/>
<circle cx="108.805" cy="283.324" r="3" fill="#384152"/>
<circle cx="108.805" cy="103.324" r="3" fill="#384152"/>
<circle cx="108.805" cy="163.324" r="3" fill="#384152"/>
<circle cx="108.805" cy="223.324" r="3" fill="#384152"/>
<circle cx="129.805" cy="3.32446" r="3" fill="#384152"/>
<circle cx="129.805" cy="243.324" r="3" fill="#384152"/>
<circle cx="129.805" cy="63.3245" r="3" fill="#384152"/>
<circle cx="129.805" cy="303.324" r="3" fill="#384152"/>
<circle cx="129.805" cy="123.324" r="3" fill="#384152"/>
<circle cx="129.805" cy="183.324" r="3" fill="#384152"/>
<circle cx="129.805" cy="23.3245" r="3" fill="#384152"/>
<circle cx="129.805" cy="263.324" r="3" fill="#384152"/>
<circle cx="129.805" cy="83.3245" r="3" fill="#384152"/>
<circle cx="129.805" cy="323.324" r="3" fill="#384152"/>
<circle cx="129.805" cy="143.324" r="3" fill="#384152"/>
<circle cx="129.805" cy="203.324" r="3" fill="#384152"/>
<circle cx="129.805" cy="43.3245" r="3" fill="#384152"/>
<circle cx="129.805" cy="283.324" r="3" fill="#384152"/>
<circle cx="129.805" cy="103.324" r="3" fill="#384152"/>
<circle cx="129.805" cy="163.324" r="3" fill="#384152"/>
<circle cx="129.805" cy="223.324" r="3" fill="#384152"/>
<circle cx="150.805" cy="3.32446" r="3" fill="#384152"/>
<circle cx="150.805" cy="243.324" r="3" fill="#384152"/>
<circle cx="150.805" cy="63.3245" r="3" fill="#384152"/>
<circle cx="150.805" cy="303.324" r="3" fill="#384152"/>
<circle cx="150.805" cy="123.324" r="3" fill="#384152"/>
<circle cx="150.805" cy="183.324" r="3" fill="#384152"/>
<circle cx="150.805" cy="23.3245" r="3" fill="#384152"/>
<circle cx="150.805" cy="263.324" r="3" fill="#384152"/>
<circle cx="150.805" cy="83.3245" r="3" fill="#384152"/>
<circle cx="150.805" cy="323.324" r="3" fill="#384152"/>
<circle cx="150.805" cy="143.324" r="3" fill="#384152"/>
<circle cx="150.805" cy="203.324" r="3" fill="#384152"/>
<circle cx="150.805" cy="43.3245" r="3" fill="#384152"/>
<circle cx="150.805" cy="283.324" r="3" fill="#384152"/>
<circle cx="150.805" cy="103.324" r="3" fill="#384152"/>
<circle cx="150.805" cy="163.324" r="3" fill="#384152"/>
<circle cx="150.805" cy="223.324" r="3" fill="#384152"/>
<circle cx="171.805" cy="3.32446" r="3" fill="#384152"/>
<circle cx="171.805" cy="243.324" r="3" fill="#384152"/>
<circle cx="171.805" cy="63.3245" r="3" fill="#384152"/>
<circle cx="171.805" cy="303.324" r="3" fill="#384152"/>
<circle cx="171.805" cy="123.324" r="3" fill="#384152"/>
<circle cx="171.805" cy="183.324" r="3" fill="#384152"/>
<circle cx="171.805" cy="23.3245" r="3" fill="#384152"/>
<circle cx="171.805" cy="263.324" r="3" fill="#384152"/>
<circle cx="171.805" cy="83.3245" r="3" fill="#384152"/>
<circle cx="171.805" cy="323.324" r="3" fill="#384152"/>
<circle cx="171.805" cy="143.324" r="3" fill="#384152"/>
<circle cx="171.805" cy="203.324" r="3" fill="#384152"/>
<circle cx="171.805" cy="43.3245" r="3" fill="#384152"/>
<circle cx="171.805" cy="283.324" r="3" fill="#384152"/>
<circle cx="171.805" cy="103.324" r="3" fill="#384152"/>
<circle cx="171.805" cy="163.324" r="3" fill="#384152"/>
<circle cx="171.805" cy="223.324" r="3" fill="#384152"/>
<circle cx="192.805" cy="3.32446" r="3" fill="#384152"/>
<circle cx="192.805" cy="243.324" r="3" fill="#384152"/>
<circle cx="192.805" cy="63.3245" r="3" fill="#384152"/>
<circle cx="192.805" cy="303.324" r="3" fill="#00C365" fill-opacity="0.7"/>
<circle cx="192.805" cy="123.324" r="3" fill="#384152"/>
<circle cx="192.805" cy="183.324" r="3" fill="#384152"/>
<circle cx="192.805" cy="23.3245" r="3" fill="#384152"/>
<circle cx="192.805" cy="263.324" r="3" fill="#384152"/>
<circle cx="192.805" cy="83.3245" r="3" fill="#384152"/>
<circle cx="192.805" cy="323.324" r="3" fill="#384152"/>
<circle cx="192.805" cy="143.324" r="3" fill="#384152"/>
<circle cx="192.805" cy="203.324" r="3" fill="#384152"/>
<circle cx="192.805" cy="43.3245" r="3" fill="#384152"/>
<circle cx="192.805" cy="283.324" r="3" fill="#384152"/>
<circle cx="192.805" cy="103.324" r="3" fill="#384152"/>
<circle cx="192.805" cy="163.324" r="3" fill="#384152"/>
<circle cx="192.805" cy="223.324" r="3" fill="#384152"/>
<circle cx="213.805" cy="3.32446" r="3" fill="#384152"/>
<circle cx="213.805" cy="243.324" r="3" fill="#384152"/>
<circle cx="213.805" cy="63.3245" r="3" fill="#384152"/>
<circle cx="213.805" cy="303.324" r="3" fill="#384152"/>
<circle cx="213.805" cy="123.324" r="3" fill="#384152"/>
<circle cx="213.805" cy="183.324" r="3" fill="#384152"/>
<circle cx="213.805" cy="23.3245" r="3" fill="#384152"/>
<circle cx="213.805" cy="263.324" r="3" fill="#384152"/>
<circle cx="213.805" cy="83.3245" r="3" fill="#384152"/>
<circle cx="213.805" cy="323.324" r="3" fill="#384152"/>
<circle cx="213.805" cy="143.324" r="3" fill="#384152"/>
<circle cx="213.805" cy="203.324" r="3" fill="#384152"/>
<circle cx="213.805" cy="43.3245" r="3" fill="#384152"/>
<circle cx="213.805" cy="283.324" r="3" fill="#384152"/>
<circle cx="213.805" cy="103.324" r="3" fill="#384152"/>
<circle cx="213.805" cy="163.324" r="3" fill="#384152"/>
<circle cx="213.805" cy="223.324" r="3" fill="#384152"/>
<circle cx="234.805" cy="3.32446" r="3" fill="#384152"/>
<circle cx="234.805" cy="243.324" r="3" fill="#384152"/>
<circle cx="234.805" cy="63.3245" r="3" fill="#384152"/>
<circle cx="234.805" cy="303.324" r="3" fill="#384152"/>
<circle cx="234.805" cy="123.324" r="3" fill="#384152"/>
<circle cx="234.805" cy="183.324" r="3" fill="#384152"/>
<circle cx="234.805" cy="23.3245" r="3" fill="#384152"/>
<circle cx="234.805" cy="263.324" r="3" fill="#384152"/>
<circle cx="234.805" cy="83.3245" r="3" fill="#384152"/>
<circle cx="234.805" cy="323.324" r="3" fill="#384152"/>
<circle cx="234.805" cy="143.324" r="3" fill="#384152"/>
<circle cx="234.805" cy="203.324" r="3" fill="#384152"/>
<circle cx="234.805" cy="43.3245" r="3" fill="#384152"/>
<circle cx="234.805" cy="283.324" r="3" fill="#384152"/>
<circle cx="234.805" cy="103.324" r="3" fill="#384152"/>
<circle cx="234.805" cy="163.324" r="3" fill="#384152"/>
<circle cx="234.805" cy="223.324" r="3" fill="#384152"/>
<circle cx="255.805" cy="3.32446" r="3" fill="#384152"/>
<circle cx="255.805" cy="243.324" r="3" fill="#384152"/>
<circle cx="255.805" cy="63.3245" r="3" fill="#384152"/>
<circle cx="255.805" cy="303.324" r="3" fill="#384152"/>
<circle cx="255.805" cy="123.324" r="3" fill="#384152"/>
<circle cx="255.805" cy="183.324" r="3" fill="#384152"/>
<circle cx="255.805" cy="23.3245" r="3" fill="#384152"/>
<circle cx="255.805" cy="263.324" r="3" fill="#384152"/>
<circle cx="255.805" cy="83.3245" r="3" fill="#384152"/>
<circle cx="255.805" cy="323.324" r="3" fill="#384152"/>
<circle cx="255.805" cy="143.324" r="3" fill="#384152"/>
<circle cx="255.805" cy="203.324" r="3" fill="#384152"/>
<circle cx="255.805" cy="43.3245" r="3" fill="#384152"/>
<circle cx="255.805" cy="283.324" r="3" fill="#384152"/>
<circle cx="255.805" cy="103.324" r="3" fill="#384152"/>
<circle cx="255.805" cy="163.324" r="3" fill="#384152"/>
<circle cx="255.805" cy="223.324" r="3" fill="#384152"/>
<circle cx="276.805" cy="3.32446" r="3" fill="#384152"/>
<circle cx="276.805" cy="243.324" r="3" fill="#384152"/>
<circle cx="276.805" cy="63.3245" r="3" fill="#384152"/>
<circle cx="276.805" cy="303.324" r="3" fill="#384152"/>
<circle cx="276.805" cy="123.324" r="3" fill="#384152"/>
<circle cx="276.805" cy="183.324" r="3" fill="#384152"/>
<circle cx="276.805" cy="23.3245" r="3" fill="#384152"/>
<circle cx="276.805" cy="263.324" r="3" fill="#384152"/>
<circle cx="276.805" cy="83.3245" r="3" fill="#384152"/>
<circle cx="276.805" cy="323.324" r="3" fill="#384152"/>
<circle cx="276.805" cy="143.324" r="3" fill="#384152"/>
<circle cx="276.805" cy="203.324" r="3" fill="#384152"/>
<circle cx="276.805" cy="43.3245" r="3" fill="#384152"/>
<circle cx="276.805" cy="283.324" r="3" fill="#384152"/>
<circle cx="276.805" cy="103.324" r="3" fill="#384152"/>
<circle cx="276.805" cy="163.324" r="3" fill="#384152"/>
<circle cx="276.805" cy="223.324" r="3" fill="#384152"/>
<circle cx="297.805" cy="3.32446" r="3" fill="#384152"/>
<circle cx="297.805" cy="243.324" r="3" fill="#384152"/>
<circle cx="297.805" cy="63.3245" r="3" fill="#384152"/>
<circle cx="297.805" cy="303.324" r="3" fill="#384152"/>
<circle cx="297.805" cy="123.324" r="3" fill="#384152"/>
<circle cx="297.805" cy="183.324" r="3" fill="#384152"/>
<circle cx="297.805" cy="23.3245" r="3" fill="#384152"/>
<circle cx="297.805" cy="263.324" r="3" fill="#384152"/>
<circle cx="297.805" cy="83.3245" r="3" fill="#384152"/>
<circle cx="297.805" cy="323.324" r="3" fill="#00C365" fill-opacity="0.7"/>
<circle cx="297.805" cy="143.324" r="3" fill="#384152"/>
<circle cx="297.805" cy="203.324" r="3" fill="#384152"/>
<circle cx="297.805" cy="43.3245" r="3" fill="#384152"/>
<circle cx="297.805" cy="283.324" r="3" fill="#384152"/>
<circle cx="297.805" cy="103.324" r="3" fill="#384152"/>
<circle cx="297.805" cy="163.324" r="3" fill="#384152"/>
<circle cx="297.805" cy="223.324" r="3" fill="#384152"/>
</g>
<defs>
<clipPath id="clip0">
<rect width="315" height="326" fill="white" transform="translate(0.804688 0.324463)"/>
</clipPath>
</defs>
</svg>
