<svg width="418" height="1159" viewBox="0 0 418 1159" fill="none" xmlns="http://www.w3.org/2000/svg">
<path opacity="0.15" d="M727.681 511.405C727.681 511.405 611.21 543.605 601.417 604.568C594.608 646.952 639.086 704.969 639.086 704.969M803.749 412.139C803.749 412.139 721.11 394.083 682.32 424.119C648.579 450.246 657.72 487.491 634.079 523.55C605.068 567.802 547.942 570.958 543.146 623.326C538.356 675.621 614.781 731.782 614.781 731.782M853.159 359.602C851.615 362.784 804.516 388.646 781.159 401.179C757.802 413.712 670.073 387.366 623.343 432.006C591.999 461.948 595.959 494.541 574.551 532.573C543.194 588.28 472.445 605.269 481.93 667.327C491.122 727.467 602.101 757.918 602.101 757.918M872.455 319.83C872.455 319.83 811.574 371.991 766.637 394.133C695.519 429.176 628.508 379.34 570.626 435.208C531.853 472.632 537.677 513.577 509.981 560.207C478.18 613.747 402.775 629.036 415.799 688.589C422.166 717.698 436.463 731.182 458.438 749.987C500.825 786.261 598.672 777.312 598.672 777.312M888.995 285.739C888.995 285.739 795.46 359.45 727.763 390.715C645.9 428.523 563.066 375.754 506.465 448.3C478.668 483.929 485.073 516.025 464.625 556.452C432.945 619.085 349.911 634.043 360.01 702.233C366.326 744.883 388.462 765.946 422.387 790.054C476.324 828.382 592.499 800.991 592.499 800.991M590.617 828.154C590.617 828.154 466.556 865.39 402.54 830.962C355.417 805.62 317.167 781.694 312.496 726.209C307.211 663.435 380.052 650.267 405.117 591.455C424.098 546.919 411.298 513.292 435.992 471.666C492.242 376.847 607.597 447.755 696.211 384.532C730.736 359.899 735.6 327.245 777.429 311.629C819.257 296.014 842.709 287.259 884.537 271.644M894.461 251.189C894.461 251.189 802.046 256.686 754.408 289.23C720.115 312.658 713.423 340.982 682.045 368.534C587.331 451.699 427.968 364.108 386.697 484.249C373.019 524.065 391.505 551.078 378.103 590.983C355.674 657.767 261.881 654.126 257.13 723.914C251.849 801.475 316.968 837.712 385.724 865.621C457.598 894.796 586.361 849.252 586.361 849.252M894.307 239.182C894.307 239.182 799.925 232.622 747.134 259.028C697.484 283.863 685.957 322.571 642.962 358.698C613.765 383.231 597.974 398.32 565.658 418.057C493.079 462.382 405.136 408.056 360.509 482.073C338.746 518.169 354.836 548.971 336.802 587.089C308.669 646.553 236.426 641.861 217.866 704.865C189.277 801.91 267.337 876.906 356.915 911.307C435.284 941.403 572.853 877.093 572.853 877.093M888.485 226.53C888.485 226.53 781.218 217.548 720.241 245.98C648.367 279.494 642.281 348.5 576.96 394.762C482.844 461.416 359.923 389.381 302.333 491.049C281.974 526.99 292.968 556.519 272.447 592.366C246.242 638.141 199.8 637.55 174.299 683.728C110.799 798.717 189.446 936.81 305.44 981.794C402.296 1019.36 568.2 911.335 568.2 911.335M566.828 941.554C566.828 941.554 401.974 1088.64 288.967 1065.05C135.077 1032.92 41.0684 839.522 117.474 692.658C147.834 634.302 203.129 631.598 236.41 574.882C257.072 539.672 251.986 511.595 274.364 477.48C341.907 374.508 467.529 458.999 567.816 390.325C643.968 338.179 643.392 245.723 728.921 214.394C788.702 192.496 889.157 212.818 889.157 212.818" stroke="white"/>
</svg>
