<svg width="361" height="953" viewBox="0 0 361 953" fill="none" xmlns="http://www.w3.org/2000/svg">
<path opacity="0.5" d="M-106.491 301.852C-106.491 301.852 -28.4089 379.583 -49.8795 429.7C-64.8068 464.544 -128.463 487.462 -128.463 487.462M-119.835 192.556C-119.835 192.556 -44.7496 217.108 -28.039 257.444C-13.5036 292.53 -38.772 316.183 -37.1319 354.047C-35.1192 400.513 9.2591 429.184 -12.0892 470.57C-33.4081 511.899 -121.839 518.715 -121.839 518.715M-134.25 130.496C-134.541 133.588 -109.145 174.627 -96.4107 194.761C-83.6765 214.894 -0.511499 235.589 15.5503 290.506C26.3238 327.342 7.45657 349.902 6.35346 388.213C4.73767 444.33 53.4053 489.623 15.9185 531.682C-20.4092 572.439 -124.23 544.108 -124.23 544.108M-130.613 91.8551C-130.613 91.8551 -106.801 158.917 -81.3522 196.178C-41.0775 255.147 36.7465 248.728 56.3648 317.181C69.5065 363.036 45.1222 390.985 44.9337 438.625C44.7172 493.324 97.9429 539.492 58.8185 578.045C39.6947 596.889 21.7181 600.392 -4.98714 604.339C-56.5006 611.954 -130.808 560.196 -130.808 560.196M-127.495 58.7342C-127.495 58.7342 -87.8187 156.956 -48.4741 211.525C-0.896714 277.512 91.0511 276.185 101.613 356.525C106.801 395.982 86.2077 417.044 83.1812 456.704C78.4922 518.151 138.006 567.584 97.0765 613.946C71.4763 642.944 43.554 648.507 4.69529 650.917C-57.086 654.749 -137.244 580.752 -137.244 580.752M-148.804 601.94C-148.804 601.94 -67.0483 686.935 0.954206 690.662C51.0105 693.406 93.2568 693.123 123.712 653.766C158.169 609.239 105.982 565.84 114.147 510.298C120.33 468.238 146.798 448.977 146.99 406.463C147.428 309.621 20.6222 309.541 -20.1478 221.431C-36.0327 187.101 -24.2252 160.433 -50.3173 129.486C-76.4094 98.5395 -91.0382 81.1889 -117.13 50.2423M-115.26 30.3698C-115.26 30.3698 -43.6545 77.044 -21.042 123.331C-4.76397 156.652 -13.0186 180.923 -1.06744 215.987C35.006 321.825 205.199 329.694 180.54 438.58C172.368 474.666 144.516 486.361 136.079 522.386C121.959 582.678 199.069 623.151 169.3 677.549C136.216 738.005 66.4578 735.123 -2.21533 724.335C-74.0026 713.059 -155.538 619.685 -155.538 619.685M-109.357 21.4579C-109.357 21.4579 -30.3691 60.0191 -0.662624 104.087C27.2767 145.533 17.9091 179.799 35.0669 226.628C46.7185 258.429 52.1438 276.99 68.6104 306.639C105.592 373.225 202.393 373.087 202.628 449.013C202.742 486.04 174.991 501.672 171.136 538.495C165.122 595.937 225.423 625.7 210.014 681.381C186.28 767.148 87.4716 787.302 -1.05463 771.782C-78.5041 758.203 -158.084 646.733 -158.084 646.733M-98.5905 14.6747C-98.5905 14.6747 -8.08459 57.3574 27.2236 106.712C68.8416 164.886 40.5224 219.313 70.7408 284.006C114.28 377.216 247.708 379.939 245.05 482.522C244.11 518.786 221.066 535.813 220.302 572.082C219.327 618.396 256.925 639.343 255.19 685.634C250.871 800.904 121.224 867.99 6.37972 848.221C-89.515 831.713 -170.825 674.493 -170.825 674.493M-184.266 697.732C-184.266 697.732 -122.602 883.696 -20.4531 918.093C118.651 964.934 287.257 863.545 296.548 718.486C300.24 660.847 257.115 633.357 257.67 575.599C258.014 539.743 275.612 521.08 274.051 485.252C269.34 377.11 127.748 382.462 80.2221 284.898C44.1341 210.815 89.0915 141.913 35.4508 79.0839C-2.04165 35.169 -92.5317 4.10681 -92.5317 4.10681" stroke="#83A33E"/>
</svg>
