<svg width="574" height="760" viewBox="0 0 574 760" fill="none" xmlns="http://www.w3.org/2000/svg">
<path opacity="0.15" d="M-290.707 145.689C-290.707 145.689 -175.241 203.37 -127.607 160.818C-94.4897 131.233 -92.8081 51.9925 -92.8081 51.9925M-417.052 171.678C-417.052 171.678 -361.756 245.886 -310.727 249.382C-266.341 252.423 -249.511 215.534 -206.854 203.218C-154.505 188.105 -106.1 226.678 -68.1156 187.521C-30.1836 148.418 -55.6312 47.6787 -55.6312 47.6787M-491.345 178.842C-488.021 177.365 -432.969 190.242 -405.858 196.865C-378.747 203.488 -324.718 288.109 -257.74 285.44C-212.815 283.65 -194.809 254.277 -152.68 238.749C-90.9704 216.003 -22.5058 253.133 10.2 195.805C41.8945 140.249 -28.3273 35.5441 -28.3273 35.5441M-532.895 197.308C-532.895 197.308 -449.539 198.71 -398.662 213.057C-318.145 235.762 -296.218 324.575 -212.882 320.802C-157.058 318.274 -135.127 280.763 -82.2981 262.767C-21.64 242.104 49.4964 283.969 77.6987 226.132C91.4838 197.861 88.6613 176.592 83.0744 145.464C72.2974 85.4199 -12.9191 22.233 -12.9191 22.233M-568.508 213.135C-568.508 213.135 -444.628 220.52 -369.346 243.835C-278.31 272.029 -245.454 374.624 -152.3 356.357C-106.551 347.385 -90.852 316.655 -47.9424 298.487C18.5382 270.339 95.6486 317.968 131.848 255.209C154.489 215.956 150.241 182.874 138.41 138.825C119.599 68.7921 7.50418 7.41115 7.50418 7.41115M26.7158 -13.3356C26.7158 -13.3356 151.618 45.7132 181.146 119.832C202.882 174.391 218.34 221.407 186.009 269.919C149.43 324.804 81.7556 283.059 23.1293 312.863C-21.2659 335.432 -32.7716 372.013 -79.9074 388.099C-187.277 424.742 -234.711 283.966 -347.77 271.59C-391.821 266.769 -417.025 289.837 -461.13 272.418C-505.235 254.999 -529.963 245.233 -574.068 227.815M-595.436 237.311C-595.436 237.311 -516.875 299.396 -457.035 307.224C-413.958 312.859 -390.089 294.631 -346.691 294.81C-215.7 295.351 -143.42 481.397 -31.7181 413.362C5.30084 390.815 7.8877 355.521 44.7409 332.702C106.417 294.513 180.149 365.026 229.438 311.661C284.217 252.352 254.971 175.968 217.354 103.741C178.03 28.2376 43.9047 -27.4381 43.9047 -27.4381M-603.128 247.193C-603.128 247.193 -530.819 320.505 -470.795 337.038C-414.341 352.588 -379.789 329.393 -321.384 330.961C-281.722 332.026 -259.087 331.12 -220.016 338.335C-132.271 354.539 -96.2834 462.08 -11.8873 433.993C29.2707 420.296 36.2681 383.644 75.7168 365.615C137.256 337.491 192.818 393.338 248.894 355.439C335.269 297.063 320.758 179.82 270.472 87.3151C226.478 6.38429 72.9893 -40.3641 72.9893 -40.3641M-606.641 261.681C-606.641 261.681 -525.455 346.243 -457.469 367.023C-377.333 391.516 -327.47 339.75 -244.353 349.151C-124.596 362.697 -71.7561 509.839 41.1599 468.588C81.0773 454.005 91.3808 422.059 131.369 407.67C182.432 389.296 219.729 423.224 270.483 404.015C396.867 356.182 422.956 187.174 358.126 67.0312C303.993 -33.2878 99.0572 -64.876 99.0572 -64.876M119.844 -88.477C119.844 -88.477 349.362 -89.4358 425.694 11.1486C529.643 148.122 480.01 373.198 322.403 437.674C259.779 463.293 213.153 425.67 149.226 447.85C109.539 461.62 95.3861 488.129 55.0191 499.772C-66.8215 534.916 -113.743 375.693 -239.822 359.346C-335.558 346.933 -395.282 422.579 -485.075 386.474C-547.837 361.238 -616.113 272.354 -616.113 272.354" stroke="white"/>
</svg>
