<svg width="459" height="1159" viewBox="0 0 459 1159" fill="none" xmlns="http://www.w3.org/2000/svg">
<path opacity="0.15" d="M728.073 511.563C728.073 511.563 611.602 543.763 601.809 604.726C595.001 647.11 639.479 705.126 639.479 705.126M804.142 412.296C804.142 412.296 721.503 394.24 682.712 424.277C648.971 450.403 658.112 487.648 634.472 523.708C605.46 567.959 548.335 571.116 543.538 623.483C538.748 675.778 615.174 731.94 615.174 731.94M853.552 359.759C852.008 362.941 804.908 388.803 781.552 401.336C758.195 413.87 670.465 387.523 623.736 432.163C592.392 462.105 596.351 494.698 574.944 532.73C543.587 588.438 472.837 605.426 482.322 667.484C491.514 727.624 602.493 758.076 602.493 758.076M872.848 319.987C872.848 319.987 811.967 372.148 767.029 394.291C695.912 429.333 628.9 379.497 571.018 435.365C532.245 472.789 538.069 513.734 510.373 560.364C478.573 613.904 403.167 629.194 416.192 688.746C422.558 717.855 436.856 731.339 458.83 750.144C501.218 786.418 599.064 777.47 599.064 777.47M889.387 285.896C889.387 285.896 795.853 359.607 728.155 390.872C646.293 428.68 563.458 375.911 506.858 448.457C479.061 484.086 485.466 516.183 465.018 556.609C433.338 619.242 350.304 634.201 360.402 702.39C366.718 745.04 388.855 766.103 422.78 790.211C476.717 828.539 592.892 801.148 592.892 801.148M591.009 828.311C591.009 828.311 466.949 865.548 402.932 831.119C355.81 805.777 317.56 781.851 312.888 726.366C307.603 663.593 380.444 650.425 405.51 591.612C424.491 547.076 411.69 513.449 436.384 471.823C492.634 377.004 607.989 447.912 696.603 384.689C731.129 360.056 735.992 327.402 777.821 311.787C819.65 296.171 843.101 287.416 884.93 271.801M894.854 251.347C894.854 251.347 802.439 256.843 754.801 289.387C720.508 312.815 713.816 341.139 682.437 368.692C587.724 451.857 428.361 364.266 387.089 484.406C373.411 524.222 391.897 551.235 378.496 591.14C356.067 657.924 262.273 654.283 257.522 724.072C252.242 801.633 317.361 837.869 386.117 865.778C457.991 894.953 586.753 849.41 586.753 849.41M894.699 239.339C894.699 239.339 800.317 232.779 747.527 259.185C697.876 284.02 686.35 322.728 643.355 358.855C614.158 383.389 598.367 398.478 566.05 418.214C493.471 462.539 405.529 408.214 360.902 482.23C339.138 518.326 355.229 549.128 337.195 587.246C309.062 646.71 236.819 642.018 218.259 705.022C189.67 802.067 267.729 877.063 357.307 911.464C435.677 941.56 573.246 877.25 573.246 877.25M888.877 226.687C888.877 226.687 781.611 217.705 720.634 246.138C648.76 279.651 642.673 348.657 577.352 394.919C483.237 461.573 360.315 389.538 302.725 491.206C282.367 527.148 293.361 556.676 272.839 592.523C246.634 638.298 200.193 637.708 174.692 683.885C111.191 798.874 189.839 936.967 305.833 981.951C402.688 1019.51 568.593 911.492 568.593 911.492M567.221 941.711C567.221 941.711 402.367 1088.8 289.36 1065.21C135.469 1033.08 41.461 839.679 117.867 692.815C148.226 634.459 203.521 631.755 236.803 575.039C257.464 539.83 252.379 511.752 274.757 477.637C342.3 374.665 467.922 459.156 568.209 390.483C644.36 338.336 643.784 245.881 729.314 214.551C789.095 192.653 889.55 212.975 889.55 212.975" stroke="white"/>
</svg>
